<svg width="22" height="22" viewBox="0 0 22 22" fill="none" xmlns="http://www.w3.org/2000/svg">
<path d="M20.3335 0H1.66653C0.744816 0 0 0.744816 0 1.66653V20.3335C0 21.2521 0.744816 22 1.66653 22H20.3335C21.2521 22 22 21.2552 22 20.3335V1.66653C22 0.747919 21.2552 0 20.3335 0ZM14.7815 6.13542H13.4098C12.336 6.13542 12.1281 6.64748 12.1281 7.3954V9.04951H14.6915L14.3563 11.6377H12.125V18.2821H9.44985V11.6377H7.2154V9.04951H9.44985V7.14092C9.44985 4.9251 10.8029 3.71787 12.7798 3.71787C13.7263 3.71787 14.5394 3.78925 14.7784 3.82029V6.13542H14.7815Z" fill="black"/>
</svg>
