<svg width="22" height="22" viewBox="0 0 22 22" fill="none" xmlns="http://www.w3.org/2000/svg">
<path d="M20.3335 0H1.66653C0.74792 0 0 0.744816 0 1.66653V20.3335C0 21.2521 0.744817 22 1.66653 22H20.3335C21.2521 22 22 21.2552 22 20.3335V1.66653C22 0.747919 21.2552 0 20.3335 0ZM16.9446 7.73057C16.4822 8.19298 16.2649 8.30159 16.2649 8.30159L16.2587 8.29228C16.1346 12.1964 13.5246 16.1718 8.89745 16.417C7.15334 16.5101 5.55199 15.7994 4.30442 14.7722C4.75441 14.9056 5.22612 14.9801 5.71646 14.9801C6.65989 14.9801 7.54126 14.6232 8.30159 14.0398C8.30159 14.0398 5.71026 13.326 5.78163 12.125L7.01989 12.0908C7.01989 12.0908 6.22852 11.8457 5.79405 11.4546C5.04923 10.7843 4.62096 9.85019 4.8351 9.32882C4.8351 9.32882 4.97165 9.44985 5.33164 9.57088C5.69164 9.69192 6.03611 9.68571 6.03611 9.68571C6.03611 9.68571 5.26647 9.13951 5.04302 8.53125C4.69234 7.5785 4.87234 6.36507 5.21681 5.99887C5.21681 5.99887 5.35336 6.76851 7.55057 7.88263C8.66469 8.44745 9.91536 8.84779 10.8929 8.87572C10.8185 8.65538 10.7812 8.2116 10.7812 7.96953C10.7812 6.64438 12.0102 5.5706 13.5246 5.5706C14.3749 5.5706 15.1384 5.90887 15.6411 6.44266L16.3704 6.1137L17.2425 5.74439C17.2425 5.7506 17.289 5.79715 17.2487 5.92749C17.1587 6.23783 16.4759 6.90196 16.206 7.1192L16.1966 7.17506C16.1966 7.17506 16.4263 7.18747 16.7149 7.10678C17.0066 7.0261 17.6987 6.72507 17.6987 6.72507C17.6987 6.72507 17.4101 7.26816 16.9477 7.73057H16.9446Z" fill="black"/>
</svg>
