<svg width="22" height="22" viewBox="0 0 22 22" fill="none" xmlns="http://www.w3.org/2000/svg">
<path d="M20.3335 0H1.66653C0.747922 0 0 0.744816 0 1.66653V20.3335C0 21.2521 0.744819 22 1.66653 22H20.3335C21.2521 22 22 21.2552 22 20.3335V1.66653C22 0.747919 21.2552 0 20.3335 0ZM18.2387 13.5525C18.2387 15.1322 16.957 16.4139 15.3773 16.4139H6.62266C5.04303 16.4139 3.76132 15.1322 3.76132 13.5525V8.44745C3.76132 6.86782 5.04303 5.58612 6.62266 5.58612H15.3773C16.957 5.58612 18.2387 6.86782 18.2387 8.44745V13.5525Z" fill="black"/>
<path d="M9.72296 13.1058L13.3726 10.9986L9.72296 8.89453V13.1058Z" fill="black"/>
</svg>
