<svg width="138" height="44" viewBox="0 0 138 44" fill="none" xmlns="http://www.w3.org/2000/svg">
<path fill-rule="evenodd" clip-rule="evenodd" d="M45.4051 30.4061H40.6703L43.461 18.1772L38.4126 26.0162H35.1516L33.5211 17.6755L30.5736 30.4061H26.0583L30.3227 11.7178H35.7787L37.7855 21.0933L44.0568 11.7178H49.6695L45.4051 30.4061ZM70.4901 11.7178L67.8248 23.3823C67.229 25.9849 66.1943 27.8349 64.7832 29.0264C63.3409 30.1866 61.2713 30.7824 58.5434 30.7824C56.1289 30.7824 54.2789 30.3434 53.0247 29.4654C51.7704 28.5875 51.1433 27.2391 51.1433 25.4518C51.1433 25.0756 51.1746 24.6993 51.2373 24.323C51.3001 23.9467 51.3628 23.6018 51.4255 23.2883L54.0594 11.7178H58.8569L56.223 23.3196C56.1603 23.5391 56.1289 23.8213 56.0662 24.1035C56.0349 24.3857 56.0035 24.6052 56.0035 24.7934C56.0035 25.5773 56.223 26.173 56.6933 26.5807C57.1637 26.9883 57.9476 27.1764 59.0137 27.1764C60.0484 27.1764 60.8951 26.8942 61.5536 26.2985C62.212 25.7027 62.651 24.7934 62.9332 23.5705L65.6299 11.7492H70.4901V11.7178ZM88.0496 30.4061H82.8131L78.674 22.8493L76.7613 24.5425L75.413 30.4061H70.6469L74.88 11.7178H79.6461L77.7647 19.9645L86.0741 11.7178H91.7182L82.4054 20.4035L88.0496 30.4061Z" fill="#ED1C24"/>
<path fill-rule="evenodd" clip-rule="evenodd" d="M56.9442 41.3181C56.2544 41.3181 55.7213 41.1299 55.3137 40.785C54.9374 40.4401 54.7179 39.907 54.7179 39.2486C54.7179 38.7469 54.7806 38.2765 54.9374 37.8375C55.0942 37.3985 55.3137 37.0223 55.5959 36.6773C55.8781 36.3638 56.223 36.1129 56.6306 35.9248C57.0383 35.7367 57.5086 35.6426 58.0103 35.6426C58.3239 35.6426 58.6061 35.6739 58.8883 35.768C59.1705 35.8307 59.4527 35.9562 59.7349 36.1443L59.5781 36.9596H59.5154C59.4213 36.8655 59.3586 36.8028 59.2645 36.7401C59.1705 36.6773 59.0764 36.5833 58.8883 36.5206C58.7629 36.4579 58.6061 36.3951 58.4179 36.3324C58.2298 36.2697 58.0417 36.2697 57.7908 36.2697C57.4459 36.2697 57.1323 36.3324 56.8501 36.4892C56.5679 36.646 56.3171 36.8341 56.0976 37.085C55.8781 37.3358 55.7213 37.6494 55.6272 37.9943C55.5018 38.3392 55.4391 38.7469 55.4391 39.1231C55.4391 39.6248 55.5645 40.0325 55.8154 40.3147C56.0662 40.5969 56.4425 40.7223 56.9442 40.7223C57.1637 40.7223 57.3832 40.6909 57.6027 40.6282C57.8222 40.5655 58.0103 40.5028 58.1671 40.4401C58.3239 40.3774 58.4806 40.2833 58.6061 40.1892C58.7315 40.0952 58.8256 40.0325 58.9196 39.9698H58.9823L58.8256 40.8164C58.5747 40.9418 58.2612 41.0672 57.9476 41.1613C57.6654 41.2867 57.3205 41.3181 56.9442 41.3181ZM61.679 35.5172L60.362 41.224H59.6722L60.9891 35.5172H61.679ZM64.6892 39.0604C64.3129 39.0604 63.968 39.0918 63.6858 39.1545C63.4036 39.1858 63.1527 39.2486 62.9646 39.3426C62.7764 39.4367 62.6197 39.5308 62.5256 39.6562C62.4315 39.7816 62.3688 39.9698 62.3688 40.1579C62.3688 40.346 62.4315 40.4714 62.557 40.5655C62.6824 40.6596 62.8705 40.6909 63.1214 40.6909C63.3409 40.6909 63.5604 40.6282 63.8112 40.5342C64.0307 40.4401 64.2502 40.3147 64.4697 40.1892L64.6892 39.0604ZM64.2815 40.785C64.2188 40.8164 64.1248 40.8791 63.9993 40.9418C63.8739 41.0045 63.7798 41.0672 63.6544 41.1299C63.529 41.1926 63.4036 41.224 63.2468 41.2554C63.09 41.2867 62.9019 41.3181 62.7137 41.3181C62.4002 41.3181 62.118 41.224 61.9298 41.0359C61.7417 40.8477 61.6163 40.5969 61.6163 40.2833C61.6163 39.9698 61.679 39.6875 61.8358 39.4681C61.9925 39.2486 62.1807 39.0604 62.4629 38.9036C62.7451 38.7782 63.0587 38.6528 63.4663 38.5901C63.8426 38.5274 64.2815 38.496 64.7832 38.4646C64.7832 38.4019 64.8146 38.3392 64.8146 38.2765C64.8146 38.2138 64.8146 38.1824 64.8146 38.1197C64.8146 37.9943 64.7832 37.9002 64.7519 37.8375C64.6892 37.7748 64.6265 37.7121 64.5638 37.6494C64.4697 37.618 64.3756 37.5867 64.2815 37.5553C64.1561 37.5553 64.0307 37.524 63.9053 37.524C63.6858 37.524 63.4663 37.5553 63.1841 37.618C62.9332 37.6807 62.7137 37.7435 62.5256 37.8062H62.4942L62.6197 37.1163C62.7451 37.085 62.9646 37.0223 63.2154 36.9909C63.4976 36.9596 63.7485 36.9282 63.9993 36.9282C64.501 36.9282 64.8773 37.0223 65.1282 37.179C65.379 37.3358 65.5044 37.5867 65.5044 37.9316C65.5044 37.9943 65.5044 38.057 65.4731 38.1511C65.4731 38.2138 65.4417 38.3079 65.4417 38.3706L64.8146 41.1613H64.1248L64.2815 40.785ZM67.4799 41.3181C67.1663 41.3181 66.9155 41.2867 66.6646 41.1926C66.4138 41.1299 66.2256 41.0359 66.0689 40.9418L66.2256 40.1892H66.257C66.3197 40.2206 66.3824 40.2833 66.4451 40.346C66.5392 40.4087 66.6333 40.4715 66.7587 40.5342C66.8841 40.5969 67.0095 40.6282 67.1663 40.6909C67.3231 40.7223 67.4799 40.7537 67.6367 40.7537C67.9816 40.7537 68.2638 40.6909 68.4519 40.5655C68.6401 40.4401 68.7341 40.252 68.7341 40.0011C68.7341 39.8757 68.6714 39.7816 68.5773 39.6875C68.4833 39.6248 68.3265 39.5621 68.1384 39.5308C68.0443 39.4994 67.9189 39.4994 67.7934 39.4681C67.668 39.4367 67.5112 39.4053 67.3858 39.374C67.1036 39.2799 66.8841 39.1858 66.7587 39.0291C66.6333 38.8723 66.5392 38.6841 66.5392 38.4646C66.5392 38.2765 66.5706 38.0884 66.6646 37.9316C66.7587 37.7748 66.8841 37.618 67.0409 37.4613C67.1977 37.3358 67.3858 37.2104 67.6367 37.1477C67.8875 37.0536 68.1384 37.0223 68.4519 37.0223C68.7028 37.0223 68.9223 37.0536 69.1731 37.1163C69.424 37.179 69.6121 37.2418 69.7689 37.3358L69.6121 38.057H69.5807C69.5494 38.0257 69.4867 37.9943 69.3926 37.9316C69.2985 37.8689 69.2045 37.8375 69.0791 37.7748C68.985 37.7435 68.8596 37.6807 68.7028 37.6494C68.5774 37.618 68.4206 37.5867 68.2638 37.5867C67.9502 37.5867 67.6994 37.6494 67.5112 37.7748C67.3231 37.9002 67.229 38.0884 67.229 38.3079C67.229 38.4333 67.2604 38.5274 67.3545 38.6214C67.4485 38.7155 67.574 38.7782 67.7621 38.8096C67.8875 38.8409 68.0129 38.8723 68.1384 38.9036C68.2638 38.935 68.3892 38.9664 68.5146 38.9977C68.7968 39.0604 69.0163 39.1858 69.1418 39.3426C69.2985 39.4994 69.3613 39.6875 69.3613 39.907C69.3613 40.0952 69.3299 40.2833 69.2358 40.4715C69.1418 40.6596 69.0163 40.8164 68.8596 40.9418C68.7028 41.0672 68.4833 41.1926 68.2324 41.2554C68.0443 41.2867 67.7621 41.3181 67.4799 41.3181ZM71.3681 41.3181C71.0545 41.3181 70.8036 41.2867 70.5528 41.1926C70.3019 41.1299 70.1138 41.0359 69.957 40.9418L70.1138 40.1892H70.1452C70.2079 40.2206 70.2706 40.2833 70.3333 40.346C70.4274 40.4087 70.5214 40.4715 70.6469 40.5342C70.7723 40.5969 70.8977 40.6282 71.0545 40.6909C71.2113 40.7223 71.3681 40.7537 71.5248 40.7537C71.8698 40.7537 72.152 40.6909 72.3401 40.5655C72.5282 40.4401 72.6223 40.252 72.6223 40.0011C72.6223 39.8757 72.5596 39.7816 72.4655 39.6875C72.3715 39.6248 72.2147 39.5621 72.0265 39.5308C71.9325 39.4994 71.807 39.4994 71.6816 39.4681C71.5562 39.4367 71.3994 39.4053 71.274 39.374C70.9918 39.2799 70.7723 39.1858 70.6469 39.0291C70.5214 38.8723 70.4274 38.6841 70.4274 38.4646C70.4274 38.2765 70.4587 38.0884 70.5528 37.9316C70.6469 37.7748 70.7723 37.618 70.9291 37.4613C71.0858 37.3358 71.274 37.2104 71.5248 37.1477C71.7757 37.0536 72.0265 37.0223 72.3401 37.0223C72.5909 37.0223 72.8104 37.0536 73.0613 37.1163C73.3121 37.179 73.5003 37.2418 73.6571 37.3358L73.5003 38.057H73.4689C73.4376 38.0257 73.3749 37.9943 73.2808 37.9316C73.1867 37.8689 73.0926 37.8375 72.9672 37.7748C72.8732 37.7435 72.7477 37.6807 72.5909 37.6494C72.4655 37.618 72.3087 37.5867 72.152 37.5867C71.8384 37.5867 71.5875 37.6494 71.3994 37.7748C71.2113 37.9002 71.1172 38.0884 71.1172 38.3079C71.1172 38.4333 71.1486 38.5274 71.2426 38.6214C71.3367 38.7155 71.4621 38.7782 71.6503 38.8096C71.7757 38.8409 71.9011 38.8723 72.0265 38.9036C72.152 38.935 72.2774 38.9664 72.4028 38.9977C72.685 39.0604 72.9045 39.1858 73.0299 39.3426C73.1867 39.4994 73.2494 39.6875 73.2494 39.907C73.2494 40.0952 73.2181 40.2833 73.124 40.4715C73.0299 40.6596 72.9045 40.8164 72.7477 40.9418C72.5909 41.0672 72.3715 41.1926 72.1206 41.2554C71.9325 41.2867 71.6816 41.3181 71.3681 41.3181ZM75.9774 35.7053L75.8206 36.4265H75.0367L75.1935 35.7053H75.9774ZM75.6325 37.1163L74.6918 41.224H74.002L74.9427 37.1163H75.6325ZM77.7961 41.3181C77.5452 41.3181 77.3257 41.2867 77.1062 41.224C76.9181 41.1613 76.73 41.0672 76.5732 40.9418C76.4164 40.8164 76.3223 40.6596 76.2283 40.4715C76.1656 40.2833 76.1028 40.0638 76.1028 39.7816C76.1028 39.4053 76.1656 39.0291 76.291 38.7155C76.4164 38.3706 76.5732 38.0884 76.7927 37.8375C77.0122 37.5867 77.263 37.3985 77.5766 37.2418C77.8902 37.085 78.2351 37.0223 78.58 37.0223C78.8308 37.0223 79.0503 37.0536 79.2385 37.1163C79.458 37.179 79.6461 37.2731 79.8029 37.3672L79.6461 38.1197H79.6147C79.552 38.0884 79.5207 38.0257 79.4266 37.963C79.3639 37.9002 79.2698 37.8375 79.1758 37.8062C79.0817 37.7435 78.9563 37.7121 78.8308 37.6807C78.7054 37.6494 78.58 37.618 78.4232 37.618C77.9529 37.618 77.5766 37.8062 77.263 38.2138C76.9808 38.6214 76.824 39.0918 76.824 39.6875C76.824 40.0325 76.9181 40.2833 77.0749 40.4715C77.263 40.6596 77.5139 40.7537 77.8274 40.7537C77.9842 40.7537 78.141 40.7223 78.2978 40.6909C78.4546 40.6596 78.58 40.5969 78.6741 40.5342C78.7995 40.4715 78.8936 40.4087 79.019 40.346C79.113 40.2833 79.2071 40.2206 79.2385 40.1892H79.2698L79.113 40.9418C78.8936 41.0359 78.6741 41.1299 78.4546 41.1926C78.2978 41.2867 78.0469 41.3181 77.7961 41.3181ZM81.2139 41.3181C80.9004 41.3181 80.6495 41.2867 80.3986 41.1926C80.1478 41.1299 79.9597 41.0359 79.8029 40.9418L79.9597 40.1892H79.991C80.0537 40.2206 80.1164 40.2833 80.1792 40.346C80.2732 40.4087 80.3673 40.4715 80.4927 40.5342C80.6181 40.5969 80.7436 40.6282 80.9004 40.6909C81.0571 40.7223 81.2139 40.7537 81.3707 40.7537C81.7156 40.7537 81.9978 40.6909 82.186 40.5655C82.3741 40.4401 82.4682 40.252 82.4682 40.0011C82.4682 39.8757 82.4054 39.7816 82.3114 39.6875C82.2173 39.6248 82.0605 39.5621 81.8724 39.5308C81.7783 39.4994 81.6529 39.4994 81.5275 39.4681C81.4021 39.4367 81.2453 39.4053 81.1198 39.374C80.8376 39.2799 80.6181 39.1858 80.4927 39.0291C80.3673 38.8723 80.2732 38.6841 80.2732 38.4646C80.2732 38.2765 80.3046 38.0884 80.3986 37.9316C80.4927 37.7748 80.6181 37.618 80.7749 37.4613C80.9317 37.3358 81.1198 37.2104 81.3707 37.1477C81.6215 37.0536 81.8724 37.0223 82.186 37.0223C82.4368 37.0223 82.6563 37.0536 82.9071 37.1163C83.158 37.179 83.3461 37.2418 83.5029 37.3358L83.3461 38.057H83.3148C83.2834 38.0257 83.2207 37.9943 83.1266 37.9316C83.0326 37.8689 82.9385 37.8375 82.8131 37.7748C82.719 37.7435 82.5936 37.6807 82.4368 37.6494C82.3114 37.618 82.1546 37.5867 81.9978 37.5867C81.6843 37.5867 81.4334 37.6494 81.2453 37.7748C81.0571 37.9002 80.9631 38.0884 80.9631 38.3079C80.9631 38.4333 80.9944 38.5274 81.0885 38.6214C81.1826 38.7155 81.308 38.7782 81.4961 38.8096C81.6215 38.8409 81.747 38.8723 81.8724 38.9036C81.9978 38.935 82.1232 38.9664 82.2487 38.9977C82.5309 39.0604 82.7504 39.1858 82.8758 39.3426C83.0326 39.4994 83.0953 39.6875 83.0953 39.907C83.0953 40.0952 83.0639 40.2833 82.9699 40.4715C82.8758 40.6596 82.7504 40.8164 82.5936 40.9418C82.4368 41.0672 82.2173 41.1926 81.9665 41.2554C81.7783 41.2867 81.4961 41.3181 81.2139 41.3181ZM90.464 38.5587C90.464 38.935 90.4013 39.2799 90.3072 39.6248C90.1818 39.9698 90.025 40.252 89.8369 40.5028C89.6174 40.7537 89.3665 40.9732 89.1157 41.0986C88.8335 41.2554 88.5199 41.3181 88.1436 41.3181C87.6733 41.3181 87.297 41.1926 87.0148 40.9104C86.7326 40.6282 86.6072 40.252 86.6072 39.7503C86.6072 39.374 86.6699 39.0291 86.764 38.6841C86.8894 38.3392 87.0462 38.057 87.2343 37.8062C87.4225 37.5553 87.6733 37.3672 87.9869 37.2104C88.2691 37.0536 88.614 36.9909 88.9589 36.9909C89.4292 36.9909 89.8055 37.1163 90.0877 37.3985C90.3072 37.6807 90.464 38.057 90.464 38.5587ZM89.3352 40.1265C89.4606 39.9384 89.5547 39.7189 89.6487 39.4367C89.7114 39.1858 89.7428 38.9036 89.7428 38.6214C89.7428 38.2765 89.6487 38.0257 89.492 37.8375C89.3352 37.6494 89.0843 37.5867 88.8021 37.5867C88.5513 37.5867 88.3631 37.6494 88.175 37.7435C87.9869 37.8689 87.8301 38.0257 87.7047 38.2138C87.5792 38.4019 87.4852 38.6214 87.3911 38.9036C87.3284 39.1545 87.297 39.4367 87.297 39.7189C87.297 40.0638 87.3911 40.3147 87.5479 40.5028C87.7047 40.6909 87.9555 40.785 88.2377 40.785C88.4572 40.785 88.6767 40.7223 88.8648 40.6282C89.053 40.4715 89.2098 40.3147 89.3352 40.1265ZM94.2895 36.1443H94.2581C94.1954 36.1129 94.1013 36.0816 93.9759 36.0816C93.8505 36.0502 93.7564 36.0502 93.6623 36.0502C93.3488 36.0502 93.1293 36.1129 93.0039 36.2697C92.8471 36.4265 92.753 36.646 92.6589 36.9596L92.6276 37.085H93.8505L93.725 37.6494H92.5022L91.7183 41.1926H91.0284L91.8123 37.6494H91.342L91.4674 37.085H91.9377L91.9691 36.9596C92.0632 36.4892 92.2513 36.1129 92.5649 35.8307C92.8471 35.5799 93.2233 35.4231 93.6937 35.4231C93.8505 35.4231 93.9759 35.4231 94.1013 35.4545C94.2268 35.4545 94.3522 35.4858 94.4462 35.5172L94.2895 36.1443ZM100.843 35.5172L99.526 41.224H98.8361L98.9302 40.785C98.6166 41.0045 98.3658 41.1299 98.1776 41.224C97.9895 41.2867 97.77 41.3494 97.5505 41.3494C97.1742 41.3494 96.8607 41.224 96.6412 40.9731C96.4217 40.7223 96.2963 40.3774 96.2963 39.907C96.2963 39.4994 96.359 39.1545 96.4844 38.7782C96.6098 38.4333 96.7666 38.1197 96.9861 37.8689C97.2056 37.618 97.4251 37.3985 97.7073 37.2418C97.9895 37.085 98.3031 37.0223 98.6166 37.0223C98.8361 37.0223 99.0243 37.0536 99.2124 37.085C99.4005 37.1163 99.5573 37.2104 99.7141 37.3045L100.122 35.5172H100.843ZM99.62 37.8689C99.4632 37.7748 99.3065 37.7121 99.1497 37.6807C98.9929 37.6494 98.8361 37.618 98.648 37.618C98.3971 37.618 98.1776 37.6807 97.9581 37.8062C97.77 37.9316 97.5819 38.0884 97.4564 38.3079C97.331 38.496 97.2369 38.7469 97.1742 38.9977C97.1115 39.2799 97.0802 39.5308 97.0802 39.7816C97.0802 40.0952 97.1429 40.3147 97.2683 40.4715C97.3937 40.6282 97.6132 40.7223 97.8954 40.7223C98.1149 40.7223 98.3031 40.6596 98.5226 40.5655C98.7421 40.4714 98.9302 40.346 99.1183 40.2206L99.62 37.8689ZM102.881 35.7053L102.724 36.4265H101.94L102.097 35.7053H102.881ZM102.536 37.1163L101.595 41.224H100.906L101.846 37.1163H102.536ZM104.198 41.3181C103.884 41.3181 103.634 41.2867 103.383 41.1926C103.132 41.1299 102.944 41.0359 102.787 40.9418L102.944 40.1892H102.975C103.038 40.2206 103.101 40.2833 103.163 40.346C103.257 40.4087 103.351 40.4715 103.477 40.5342C103.602 40.5969 103.728 40.6282 103.884 40.6909C104.041 40.7223 104.198 40.7537 104.355 40.7537C104.7 40.7537 104.982 40.6909 105.17 40.5655C105.358 40.4401 105.452 40.252 105.452 40.0011C105.452 39.8757 105.39 39.7816 105.295 39.6875C105.201 39.6248 105.045 39.5621 104.857 39.5308C104.762 39.4994 104.637 39.4994 104.512 39.4681C104.386 39.4367 104.229 39.4053 104.104 39.374C103.822 39.2799 103.602 39.1858 103.477 39.0291C103.351 38.8723 103.257 38.6841 103.257 38.4646C103.257 38.2765 103.289 38.0884 103.383 37.9316C103.477 37.7748 103.602 37.618 103.759 37.4613C103.916 37.3358 104.104 37.2104 104.355 37.1477C104.606 37.0536 104.857 37.0223 105.17 37.0223C105.421 37.0223 105.64 37.0536 105.891 37.1163C106.142 37.179 106.33 37.2418 106.487 37.3358L106.33 38.057H106.299C106.268 38.0257 106.205 37.9943 106.111 37.9316C106.017 37.8689 105.923 37.8375 105.797 37.7748C105.703 37.7435 105.578 37.6807 105.421 37.6494C105.296 37.618 105.139 37.5867 104.982 37.5867C104.668 37.5867 104.418 37.6494 104.229 37.7748C104.041 37.9002 103.947 38.0884 103.947 38.3079C103.947 38.4333 103.979 38.5274 104.073 38.6214C104.167 38.7155 104.292 38.7782 104.48 38.8096C104.606 38.8409 104.731 38.8723 104.857 38.9036C104.982 38.935 105.107 38.9664 105.233 38.9977C105.515 39.0604 105.734 39.1858 105.86 39.3426C106.017 39.4994 106.079 39.6875 106.079 39.907C106.079 40.0952 106.048 40.2833 105.954 40.4715C105.86 40.6596 105.734 40.8164 105.578 40.9418C105.421 41.0672 105.201 41.1926 104.951 41.2554C104.794 41.2867 104.512 41.3181 104.198 41.3181ZM109.874 37.1163L109.748 37.6807H108.337L107.898 39.5621C107.867 39.6562 107.867 39.7816 107.835 39.8757C107.804 40.0011 107.804 40.0952 107.804 40.1579C107.804 40.346 107.835 40.4714 107.929 40.5655C108.023 40.6596 108.18 40.6909 108.431 40.6909C108.525 40.6909 108.651 40.6596 108.776 40.6282C108.901 40.5969 108.996 40.5655 109.058 40.5342H109.09L108.964 41.1299C108.839 41.1613 108.682 41.1926 108.525 41.224C108.368 41.2554 108.243 41.2554 108.118 41.2554C107.773 41.2554 107.522 41.1926 107.334 41.0359C107.146 40.8791 107.051 40.6596 107.051 40.346C107.051 40.2833 107.051 40.1892 107.083 40.1265C107.083 40.0638 107.114 39.9697 107.114 39.8757L107.616 37.6807H107.146L107.271 37.1163H107.741L108.023 35.9248H108.713L108.431 37.1163H109.874ZM113.072 37.8375H113.04C112.946 37.8062 112.852 37.8062 112.758 37.7748C112.664 37.7748 112.57 37.7435 112.445 37.7435C112.225 37.7435 112.006 37.8062 111.755 37.9002C111.535 37.9943 111.316 38.1197 111.096 38.2765L110.438 41.1926H109.748L110.689 37.085H111.379L111.253 37.6807C111.567 37.4613 111.849 37.3045 112.068 37.2104C112.288 37.1163 112.507 37.085 112.727 37.085C112.852 37.085 112.946 37.085 112.978 37.085C113.04 37.085 113.103 37.1163 113.197 37.1163L113.072 37.8375ZM114.953 35.7053L114.796 36.4265H114.013L114.169 35.7053H114.953ZM114.608 37.1163L113.668 41.224H112.978L113.918 37.1163H114.608ZM119.155 38.4019C119.155 38.8096 119.092 39.1858 118.967 39.5308C118.841 39.907 118.685 40.1892 118.465 40.4715C118.246 40.7537 117.995 40.9418 117.744 41.0986C117.493 41.2554 117.18 41.3181 116.866 41.3181C116.646 41.3181 116.458 41.2867 116.27 41.224C116.082 41.1613 115.925 41.0986 115.768 41.0045L115.674 41.1926H115.047L116.364 35.4858H117.054L116.584 37.524C116.803 37.3672 117.023 37.2418 117.242 37.1477C117.462 37.0536 117.713 36.9909 117.963 36.9909C118.371 36.9909 118.653 37.1163 118.873 37.3672C119.061 37.618 119.155 37.963 119.155 38.4019ZM118.026 40.0638C118.152 39.8443 118.277 39.6248 118.34 39.374C118.402 39.1231 118.434 38.8409 118.434 38.5587C118.434 38.2765 118.371 38.057 118.246 37.9002C118.12 37.7435 117.932 37.6494 117.65 37.6494C117.462 37.6494 117.242 37.7121 117.023 37.8062C116.803 37.9002 116.615 38.0257 116.427 38.1511L115.894 40.5028C116.051 40.5969 116.207 40.6596 116.333 40.6909C116.49 40.7223 116.646 40.7537 116.866 40.7537C117.117 40.7537 117.336 40.6909 117.556 40.5655C117.744 40.4401 117.901 40.252 118.026 40.0638ZM123.984 37.1163L123.043 41.224H122.353L122.447 40.7537C122.197 40.9418 121.946 41.0672 121.726 41.1613C121.507 41.2554 121.256 41.3181 121.005 41.3181C120.66 41.3181 120.378 41.224 120.19 41.0359C120.002 40.8477 119.908 40.5969 119.908 40.252C119.908 40.1579 119.908 40.0952 119.939 40.0011C119.939 39.9384 119.97 39.8443 119.97 39.7189L120.566 37.0536H121.256L120.723 39.4053C120.691 39.4994 120.691 39.6248 120.66 39.7189C120.629 39.8443 120.629 39.9384 120.629 40.0011C120.629 40.2206 120.691 40.3774 120.785 40.4715C120.88 40.5655 121.068 40.6282 121.319 40.6282C121.507 40.6282 121.695 40.5655 121.946 40.4715C122.165 40.3774 122.385 40.252 122.604 40.0952L123.294 37.0223H123.984V37.1163ZM127.464 37.1163L127.339 37.6807H125.928L125.489 39.5621C125.458 39.6562 125.458 39.7816 125.426 39.8757C125.395 40.0011 125.395 40.0952 125.395 40.1579C125.395 40.346 125.426 40.4714 125.52 40.5655C125.614 40.6596 125.771 40.6909 126.022 40.6909C126.116 40.6909 126.241 40.6596 126.367 40.6282C126.492 40.5969 126.586 40.5655 126.649 40.5342H126.68L126.555 41.1299C126.43 41.1613 126.273 41.1926 126.116 41.224C125.959 41.2554 125.834 41.2554 125.708 41.2554C125.363 41.2554 125.113 41.1926 124.924 41.0359C124.736 40.8791 124.642 40.6596 124.642 40.346C124.642 40.2833 124.642 40.1892 124.674 40.1265C124.674 40.0638 124.705 39.9697 124.705 39.8757L125.207 37.6807H124.736L124.862 37.1163H125.332L125.614 35.9248H126.304L126.022 37.1163H127.464ZM129.346 35.7053L129.189 36.4265H128.405L128.562 35.7053H129.346ZM128.969 37.1163L128.029 41.224H127.339L128.28 37.1163H128.969ZM133.391 38.5587C133.391 38.935 133.328 39.2799 133.234 39.6248C133.108 39.9698 132.952 40.252 132.764 40.5028C132.544 40.7537 132.293 40.9732 132.042 41.0986C131.76 41.2554 131.447 41.3181 131.07 41.3181C130.6 41.3181 130.224 41.1926 129.941 40.9104C129.659 40.6282 129.534 40.252 129.534 39.7503C129.534 39.374 129.597 39.0291 129.691 38.6841C129.816 38.3392 129.973 38.057 130.161 37.8062C130.349 37.5553 130.6 37.3672 130.914 37.2104C131.196 37.0536 131.541 36.9909 131.886 36.9909C132.356 36.9909 132.732 37.1163 133.014 37.3985C133.265 37.6807 133.391 38.057 133.391 38.5587ZM132.293 40.1265C132.419 39.9384 132.513 39.7189 132.607 39.4367C132.669 39.1858 132.701 38.9036 132.701 38.6214C132.701 38.2765 132.607 38.0257 132.45 37.8375C132.293 37.6494 132.042 37.5867 131.76 37.5867C131.509 37.5867 131.321 37.6494 131.133 37.7435C130.945 37.8689 130.788 38.0257 130.663 38.2138C130.537 38.4019 130.443 38.6214 130.349 38.9036C130.286 39.1545 130.255 39.4367 130.255 39.7189C130.255 40.0638 130.349 40.3147 130.506 40.5028C130.663 40.6909 130.914 40.785 131.196 40.785C131.415 40.785 131.635 40.7223 131.823 40.6282C131.98 40.4715 132.136 40.3147 132.293 40.1265ZM138 38.057C138 38.1197 138 38.1824 137.969 38.3079C137.969 38.4019 137.937 38.496 137.937 38.5587L137.31 41.224H136.62L137.153 38.8723C137.185 38.7469 137.216 38.6214 137.216 38.5274C137.248 38.4333 137.248 38.3392 137.248 38.2452C137.248 38.0257 137.185 37.8689 137.091 37.7748C136.997 37.6807 136.809 37.618 136.558 37.618C136.37 37.618 136.181 37.6807 135.931 37.7748C135.711 37.8689 135.492 37.9943 135.272 38.1511L134.582 41.224H133.892L134.833 37.1163H135.523L135.429 37.5867C135.68 37.3985 135.931 37.2731 136.15 37.179C136.37 37.085 136.62 37.0223 136.84 37.0223C137.185 37.0223 137.467 37.1163 137.655 37.3045C137.906 37.4613 138 37.7121 138 38.057Z" fill="black"/>
<path fill-rule="evenodd" clip-rule="evenodd" d="M0.00127598 29.7163C-0.124149 21.2501 9.00051 14.7907 25.8702 8.55084C16.3065 13.8187 7.36999 18.9925 9.75307 28.4307C12.1048 37.8689 35.3711 44.391 58.8256 42.8232C18.3133 47.2758 0.126701 38.1825 0.00127598 29.7163Z" fill="#ED1C24"/>
<path fill-rule="evenodd" clip-rule="evenodd" d="M118.371 14.2577C118.496 22.7239 109.215 29.1832 92.0318 35.4231C101.752 30.1553 110.846 24.9815 108.462 15.5433C106.079 6.10505 82.4054 -0.41705 58.512 1.18212C99.7454 -3.30182 118.246 5.82284 118.371 14.2577Z" fill="#ED1C24"/>
</svg>
