<svg width="100" height="100" viewBox="0 0 100 100" fill="none" xmlns="http://www.w3.org/2000/svg">
<mask id="mask0_992_66" style="mask-type:alpha" maskUnits="userSpaceOnUse" x="0" y="0" width="100" height="100">
<rect width="100" height="100" fill="#D9D9D9"/>
</mask>
<g mask="url(#mask0_992_66)">
<path fill-rule="evenodd" clip-rule="evenodd" d="M45.662 41.0576C42.8099 41.0576 40.5026 43.3756 40.5026 46.2171C40.5026 49.0585 42.8206 51.3766 45.662 51.3766C48.5035 51.3766 50.8215 49.0585 50.8215 46.2171C50.8215 43.3756 48.5035 41.0576 45.662 41.0576ZM45.662 43.2261C47.3071 43.2261 48.653 44.5614 48.653 46.2171C48.653 47.8728 47.3178 49.2081 45.662 49.2081C44.0063 49.2081 42.671 47.8728 42.671 46.2171C42.671 44.5614 44.0063 43.2261 45.662 43.2261Z" fill="url(#paint0_linear_992_66)"/>
<path fill-rule="evenodd" clip-rule="evenodd" d="M71.1282 65.5098C68.2761 65.5098 65.9688 67.8278 65.9688 70.6692C65.9688 73.5107 68.2868 75.8287 71.1282 75.8287C73.9697 75.8287 76.2877 73.5107 76.2877 70.6692C76.2877 67.8278 73.9697 65.5098 71.1282 65.5098ZM71.1282 67.6782C72.7733 67.6782 74.1192 69.0135 74.1192 70.6692C74.1192 72.325 72.784 73.6602 71.1282 73.6602C69.4725 73.6602 68.1372 72.325 68.1372 70.6692C68.1372 69.0135 69.4725 67.6782 71.1282 67.6782Z" fill="url(#paint1_linear_992_66)"/>
<path fill-rule="evenodd" clip-rule="evenodd" d="M71.1282 16.6172C68.2761 16.6172 65.9688 18.9352 65.9688 21.7767C65.9688 24.6181 68.2868 26.9361 71.1282 26.9361C73.9697 26.9361 76.2877 24.6181 76.2877 21.7767C76.2877 18.9352 73.9697 16.6172 71.1282 16.6172ZM71.1282 18.7857C72.7733 18.7857 74.1192 20.1209 74.1192 21.7767C74.1192 23.4324 72.784 24.7677 71.1282 24.7677C69.4725 24.7677 68.1372 23.4324 68.1372 21.7767C68.1372 20.1209 69.4725 18.7857 71.1282 18.7857Z" fill="url(#paint2_linear_992_66)"/>
<path fill-rule="evenodd" clip-rule="evenodd" d="M20.1958 65.5098C17.3437 65.5098 15.0364 67.8278 15.0364 70.6692C15.0364 73.5107 17.3544 75.8287 20.1958 75.8287C23.0373 75.8287 25.3553 73.5107 25.3553 70.6692C25.3553 67.8278 23.0373 65.5098 20.1958 65.5098ZM20.1958 67.6782C21.8409 67.6782 23.1869 69.0135 23.1869 70.6692C23.1869 72.325 21.8516 73.6602 20.1958 73.6602C18.5401 73.6602 17.2049 72.325 17.2049 70.6692C17.2049 69.0135 18.5401 67.6782 20.1958 67.6782Z" fill="url(#paint3_linear_992_66)"/>
<path fill-rule="evenodd" clip-rule="evenodd" d="M20.1958 16.6172C17.3437 16.6172 15.0364 18.9352 15.0364 21.7767C15.0364 24.6181 17.3544 26.9361 20.1958 26.9361C23.0373 26.9361 25.3553 24.6181 25.3553 21.7767C25.3553 18.9352 23.0373 16.6172 20.1958 16.6172ZM20.1958 18.7857C21.8409 18.7857 23.1869 20.1209 23.1869 21.7767C23.1869 23.4324 21.8516 24.7677 20.1958 24.7677C18.5401 24.7677 17.2049 23.4324 17.2049 21.7767C17.2049 20.1209 18.5401 18.7857 20.1958 18.7857Z" fill="url(#paint4_linear_992_66)"/>
<path fill-rule="evenodd" clip-rule="evenodd" d="M29.8525 10.9451L27.0431 14.4381C25.0348 13.2311 22.6954 12.5367 20.1958 12.5367C12.8465 12.5367 6.88586 18.4973 6.88586 25.8467C6.88586 29.2436 8.16772 32.3521 10.2614 34.7022C10.2721 34.7128 10.2828 34.7235 10.2935 34.7342C12.729 37.4475 16.2648 39.1566 20.1958 39.1566C23.4218 39.1566 26.3701 38.0136 28.6774 36.1015L34.9585 42.3826C33.3242 44.5938 32.3521 47.3285 32.3521 50.2874C32.3521 53.2464 33.3989 56.1839 35.1401 58.4379L28.9018 64.6762C26.573 62.6573 23.518 61.4289 20.1958 61.4289C17.8351 61.4289 15.6025 62.0484 13.6797 63.1273L11.8637 58.4379C14.0643 57.1881 15.5491 54.8166 15.5491 52.1141C15.5491 48.0976 12.291 44.8395 8.27454 44.8395C4.25805 44.8395 1 48.0976 1 52.1141C1 56.1305 4.25805 59.3886 8.27454 59.3886C8.80864 59.3886 9.33207 59.3352 9.83413 59.2177L11.8317 64.3878C8.81933 66.8234 6.88586 70.5621 6.88586 74.7388C6.88586 78.1357 8.16772 81.2442 10.2614 83.5943C10.2721 83.605 10.2828 83.6157 10.2935 83.6264C12.729 86.3396 16.2648 88.0488 20.1958 88.0488C23.4218 88.0488 26.3914 86.8951 28.6881 84.983L31.2732 87.8351C30.8673 88.7431 30.6323 89.7579 30.6323 90.8154C30.6323 94.8319 33.8903 98.09 37.9068 98.09C41.9233 98.09 45.1813 94.8319 45.1813 90.8154C45.1813 86.799 41.9233 83.5409 37.9068 83.5409C35.7597 83.5409 33.8369 84.4703 32.5016 85.9551L30.237 83.4554C32.2666 81.1161 33.4951 78.0717 33.4951 74.7388C33.4951 71.406 32.3414 68.5325 30.4186 66.2252L36.6036 60.0402C38.975 62.2407 42.1583 63.5974 45.6513 63.5974C49.1444 63.5974 52.3277 62.2407 54.6991 60.0402L60.8841 66.2252C59.3672 68.0518 58.3204 70.2951 57.9572 72.7519H54.9982C54.4534 69.9532 51.9859 67.8382 49.0269 67.8382C45.6727 67.8382 42.9488 70.5621 42.9488 73.9163C42.9488 77.2705 45.6727 79.9944 49.0269 79.9944C52.0393 79.9944 54.5496 77.7939 55.0303 74.9097H57.8183C57.861 78.2319 59.1322 81.2656 61.1939 83.573C61.2045 83.5836 61.2152 83.5943 61.2259 83.605C63.6614 86.3183 67.1972 88.0274 71.1283 88.0274C75.0593 88.0274 78.5951 86.3183 81.0306 83.605C81.0413 83.5943 81.052 83.5836 81.0626 83.573C83.1563 81.2229 84.4382 78.1144 84.4382 74.7175C84.4382 73.051 84.1284 71.4487 83.5623 69.9746L87.4612 68.3723C88.5295 70.1455 90.4629 71.3205 92.6741 71.3205C96.0283 71.3205 98.7523 68.5966 98.7523 65.2424C98.7523 61.8882 96.0283 59.1643 92.6741 59.1643C89.3199 59.1643 86.596 61.8882 86.596 65.2424C86.596 65.6163 86.628 65.9902 86.6921 66.3427L82.6116 68.0198C80.3042 64.0674 76.0207 61.4182 71.1176 61.4182C67.7847 61.4182 64.7403 62.6466 62.4116 64.6656L56.1733 58.4272C57.9251 56.1733 58.9613 53.3425 58.9613 50.2767C58.9613 47.2109 57.9892 44.5831 56.3549 42.3719L62.636 36.0908C64.8472 37.9175 67.6566 39.0498 70.7223 39.1352L71.6837 46.4952C69.1414 47.2216 67.2827 49.5717 67.2827 52.3491C67.2827 55.7033 70.0066 58.4272 73.3608 58.4272C76.715 58.4272 79.439 55.7033 79.439 52.3491C79.439 48.9949 76.9714 46.538 73.8415 46.2816L72.8908 39.0284C76.0955 38.6011 78.9476 37.0202 81.0092 34.7342C81.0199 34.7235 81.0306 34.7128 81.0413 34.7022C83.135 32.3521 84.4168 29.2436 84.4168 25.8467C84.4168 18.4973 78.4562 12.5367 71.1069 12.5367C63.7576 12.5367 57.7969 18.4973 57.7969 25.8467C57.7969 29.1902 59.0361 32.2453 61.0657 34.5847L54.9021 40.7483C52.5093 38.4195 49.2405 36.9881 45.63 36.9881C42.0194 36.9881 38.7507 38.4195 36.3579 40.7483L30.1943 34.5847C32.2346 32.2453 33.4737 29.1902 33.4737 25.8467C33.4737 21.7874 31.6471 18.1448 28.7842 15.7093L31.4868 12.3444C32.3841 12.8572 33.4203 13.1563 34.5206 13.1563C37.8747 13.1563 40.5987 10.4323 40.5987 7.07814C40.5987 3.72395 37.8747 1 34.5206 1C31.1664 1 28.4424 3.72395 28.4424 7.07814C28.4424 8.55227 28.9658 9.89822 29.8311 10.9451H29.8525ZM37.9175 85.7201C40.7376 85.7201 43.0235 88.006 43.0235 90.8261C43.0235 93.6462 40.7376 95.9322 37.9175 95.9322C35.0974 95.9322 32.8114 93.6462 32.8114 90.8261C32.8114 88.006 35.0974 85.7201 37.9175 85.7201ZM78.7126 82.8893C76.7257 81.0413 74.0552 79.8983 71.1283 79.8983C68.2013 79.8983 65.5308 81.0306 63.5439 82.8893C65.5308 84.7373 68.2013 85.8803 71.1283 85.8803C74.0552 85.8803 76.7257 84.748 78.7126 82.8893ZM27.7801 82.8893C25.7932 81.0413 23.1227 79.8983 20.1958 79.8983C17.2689 79.8983 14.5984 81.0306 12.6115 82.8893C14.5984 84.7373 17.2689 85.8803 20.1958 85.8803C23.1227 85.8803 25.7932 84.748 27.7801 82.8893ZM80.1547 81.2549C81.4792 79.4176 82.2697 77.1637 82.2697 74.7388C82.2697 68.5966 77.2812 63.5974 71.1283 63.5974C64.9753 63.5974 59.9868 68.5859 59.9868 74.7388C59.9868 77.1744 60.7666 79.4283 62.0912 81.2549C64.4626 79.0651 67.6352 77.7191 71.1176 77.7191C74.5999 77.7191 77.7725 79.0544 80.144 81.2549H80.1547ZM29.2222 81.2549C30.5468 79.4176 31.3373 77.1637 31.3373 74.7388C31.3373 68.5966 26.3487 63.5974 20.1958 63.5974C14.0429 63.5974 9.05433 68.5859 9.05433 74.7388C9.05433 77.1744 9.83413 79.4283 11.1587 81.2549C13.5302 79.0651 16.7027 77.7191 20.1851 77.7191C23.6675 77.7191 26.8401 79.0544 29.2115 81.2549H29.2222ZM49.0376 70.0173C51.1954 70.0173 52.9473 71.7692 52.9473 73.927C52.9473 76.0848 51.1954 77.8366 49.0376 77.8366C46.8798 77.8366 45.1279 76.0848 45.1279 73.927C45.1279 71.7692 46.8798 70.0173 49.0376 70.0173ZM92.6848 61.3541C94.8426 61.3541 96.5945 63.106 96.5945 65.2638C96.5945 67.4216 94.8426 69.1734 92.6848 69.1734C90.527 69.1734 88.7751 67.4216 88.7751 65.2638C88.7751 63.106 90.527 61.3541 92.6848 61.3541ZM53.2463 58.4486C51.2595 56.6006 48.5889 55.4576 45.662 55.4576C42.7351 55.4576 40.0646 56.5899 38.0777 58.4486C40.0646 60.2966 42.7351 61.4396 45.662 61.4396C48.5889 61.4396 51.2595 60.3073 53.2463 58.4486ZM8.27454 47.0187C11.0946 47.0187 13.3806 49.3046 13.3806 52.1247C13.3806 54.9448 11.0946 57.2308 8.27454 57.2308C5.45445 57.2308 3.16847 54.9448 3.16847 52.1247C3.16847 49.3046 5.45445 47.0187 8.27454 47.0187ZM54.6884 56.8249C56.013 54.9875 56.7928 52.7336 56.7928 50.2981C56.7928 44.1559 51.8043 39.1566 45.6513 39.1566C39.4984 39.1566 34.5099 44.1452 34.5099 50.2981C34.5099 52.7336 35.2897 54.9875 36.6249 56.8249C38.9964 54.635 42.169 53.2891 45.6513 53.2891C49.1337 53.2891 52.3063 54.6244 54.6778 56.8249H54.6884ZM73.3715 48.4501C75.5293 48.4501 77.2812 50.2019 77.2812 52.3597C77.2812 54.5175 75.5293 56.2694 73.3715 56.2694C71.2137 56.2694 69.4618 54.5175 69.4618 52.3597C69.4618 50.2019 71.2137 48.4501 73.3715 48.4501ZM78.7126 34.0078C76.7257 32.1491 74.0552 31.0168 71.1283 31.0168C68.2013 31.0168 65.5308 32.1491 63.5439 34.0078C65.5308 35.8558 68.2013 36.9988 71.1283 36.9988C74.0552 36.9988 76.7257 35.8665 78.7126 34.0078ZM27.7801 34.0078C25.7932 32.1491 23.1227 31.0168 20.1958 31.0168C17.2689 31.0168 14.5984 32.1491 12.6115 34.0078C14.5984 35.8558 17.2689 36.9988 20.1958 36.9988C23.1227 36.9988 25.7932 35.8665 27.7801 34.0078ZM80.1547 32.3734C81.4792 30.5361 82.2697 28.2822 82.2697 25.8573C82.2697 19.7044 77.2812 14.7159 71.1283 14.7159C64.9753 14.7159 59.9868 19.7044 59.9868 25.8573C59.9868 28.2929 60.7666 30.5468 62.0912 32.3734C64.4626 30.1836 67.6352 28.8377 71.1176 28.8377C74.5999 28.8377 77.7725 30.1729 80.144 32.3734H80.1547ZM29.2222 32.3734C30.5468 30.5361 31.3373 28.2822 31.3373 25.8573C31.3373 19.7044 26.3487 14.7159 20.1958 14.7159C14.0429 14.7159 9.05433 19.7044 9.05433 25.8573C9.05433 28.2929 9.83413 30.5468 11.1587 32.3734C13.5302 30.1836 16.7027 28.8377 20.1851 28.8377C23.6675 28.8377 26.8401 30.1729 29.2115 32.3734H29.2222ZM34.5419 3.15779C36.6997 3.15779 38.4516 4.90966 38.4516 7.06746C38.4516 9.22525 36.6997 10.9771 34.5419 10.9771C32.3841 10.9771 30.6323 9.22525 30.6323 7.06746C30.6323 4.90966 32.3841 3.15779 34.5419 3.15779Z" fill="url(#paint5_linear_992_66)"/>
</g>
<defs>
<linearGradient id="paint0_linear_992_66" x1="40.5026" y1="46.2171" x2="50.8215" y2="46.2171" gradientUnits="userSpaceOnUse">
<stop stop-color="white"/>
<stop offset="1" stop-color="#FF0000"/>
</linearGradient>
<linearGradient id="paint1_linear_992_66" x1="65.9687" y1="70.6692" x2="76.2877" y2="70.6692" gradientUnits="userSpaceOnUse">
<stop stop-color="white"/>
<stop offset="1" stop-color="#FF0000"/>
</linearGradient>
<linearGradient id="paint2_linear_992_66" x1="65.9687" y1="21.7767" x2="76.2877" y2="21.7767" gradientUnits="userSpaceOnUse">
<stop stop-color="white"/>
<stop offset="1" stop-color="#FF0000"/>
</linearGradient>
<linearGradient id="paint3_linear_992_66" x1="15.0364" y1="70.6692" x2="25.3553" y2="70.6692" gradientUnits="userSpaceOnUse">
<stop stop-color="white"/>
<stop offset="1" stop-color="#FF0000"/>
</linearGradient>
<linearGradient id="paint4_linear_992_66" x1="15.0364" y1="21.7767" x2="25.3553" y2="21.7767" gradientUnits="userSpaceOnUse">
<stop stop-color="white"/>
<stop offset="1" stop-color="#FF0000"/>
</linearGradient>
<linearGradient id="paint5_linear_992_66" x1="1" y1="49.5396" x2="98.763" y2="49.5396" gradientUnits="userSpaceOnUse">
<stop stop-color="white"/>
<stop offset="1" stop-color="#FF0000"/>
</linearGradient>
</defs>
</svg>
