<svg width="100" height="100" viewBox="0 0 100 100" fill="none" xmlns="http://www.w3.org/2000/svg">
<mask id="mask0_992_68" style="mask-type:alpha" maskUnits="userSpaceOnUse" x="0" y="0" width="100" height="100">
<rect width="100" height="100" fill="#D9D9D9"/>
</mask>
<g mask="url(#mask0_992_68)">
<path d="M93.5 20.05V33.39C93.5 41.3 92.04 49.05 89.16 56.4C88.84 57.2 87.93 57.6 87.14 57.28C86.34 56.97 85.94 56.06 86.26 55.26C89 48.27 90.38 40.92 90.38 33.39V21.52C83.87 20.8 78.69 15.61 77.97 9.11H21.54C20.82 15.62 15.63 20.8 9.13 21.52V33.39C8.83 58.54 25.87 82.42 49.76 90.27C51.9 89.54 54.01 88.68 56.05 87.71C56.83 87.34 57.76 87.67 58.13 88.45C58.5 89.23 58.17 90.16 57.39 90.53C54.93 91.63 52.4 92.85 49.77 93.48C36.87 89.55 25.88 81.27 17.97 70.38C10.13 59.55 6 46.76 6 33.4V20.06C6 19.2 6.7 18.5 7.56 18.5C13.59 18.5 18.5 13.59 18.5 7.56C18.5 6.7 19.2 6 20.06 6H79.44C80.3 6 81 6.7 81 7.56C81 13.59 85.91 18.5 91.94 18.5C92.8 18.5 93.5 19.2 93.5 20.06V20.05ZM27.32 16.92H72.17C74.33 21.44 78.04 25.15 82.56 27.31V33.39C82.56 40.04 81.33 46.51 78.9 52.63C78.17 54.54 81.02 55.68 81.81 53.78C85.43 45.23 85.95 35.53 85.69 26.3C85.69 25.67 85.31 25.1 84.73 24.86C80.21 22.96 76.53 19.28 74.63 14.76C74.39 14.18 73.82 13.8 73.19 13.8H26.31C25.68 13.8 25.11 14.18 24.87 14.76C22.97 19.28 19.29 22.96 14.77 24.86C14.19 25.1 13.81 25.67 13.81 26.3V33.39C13.81 56.46 27.69 76.75 49.18 85.08C50.79 85.42 52.45 84.01 54.23 83.38C55.01 83.01 55.34 82.08 54.97 81.3C53.79 79.17 51.18 81.65 49.74 81.95C27.29 73.01 15.25 51.11 16.93 27.31C21.45 25.15 25.16 21.44 27.32 16.92ZM93.5 76.29C92.56 99.09 60.07 99.09 59.12 76.29C59.12 66.81 66.83 59.1 76.31 59.1C85.79 59.1 93.5 66.81 93.5 76.29ZM90.38 76.29C89.61 57.64 63.03 57.63 62.26 76.29C62.26 84.04 68.57 90.35 76.32 90.35C84.07 90.35 90.38 84.04 90.38 76.29ZM79.9 72.06L74.76 77.2L72.74 75.18C71.29 73.74 69.09 75.94 70.53 77.39L73.65 80.51C74.26 81.12 75.25 81.12 75.86 80.51L82.11 74.26C83.55 72.81 81.35 70.61 79.9 72.05V72.06Z" fill="url(#paint0_linear_992_68)"/>
</g>
<defs>
<linearGradient id="paint0_linear_992_68" x1="6" y1="49.74" x2="93.5" y2="49.74" gradientUnits="userSpaceOnUse">
<stop stop-color="white"/>
<stop offset="1" stop-color="#FF0000"/>
</linearGradient>
</defs>
</svg>
