<svg width="100" height="100" viewBox="0 0 100 100" fill="none" xmlns="http://www.w3.org/2000/svg">
<mask id="mask0_992_67" style="mask-type:alpha" maskUnits="userSpaceOnUse" x="0" y="0" width="100" height="100">
<rect width="100" height="100" fill="#D9D9D9"/>
</mask>
<g mask="url(#mask0_992_67)">
<path d="M92.05 62.12H90.49V59C90.49 57.28 89.08 55.88 87.37 55.88H85.81V49.33C86.53 49.08 87.19 48.66 87.72 48.1C88.6 47.15 89.03 45.85 88.92 44.57C87.1 24.3 70.32 9 49.87 9C29.42 9 12.63 24.28 10.82 44.56C10.71 45.84 11.15 47.12 12.02 48.09C12.55 48.67 13.21 49.07 13.93 49.32V55.87H12.37C10.65 55.87 9.25 57.28 9.25 58.99V62.11H7.69C5.11 62.11 3 64.22 3 66.8V79.3C3 81.88 5.11 83.99 7.69 83.99H9.25V87.11C9.25 88.83 10.66 90.23 12.37 90.23H18.62C20.34 90.23 21.74 88.82 21.74 87.11H23.3C25.88 87.11 27.99 85 27.99 82.42V63.67C27.99 61.09 25.88 58.98 23.3 58.98H21.74C21.74 57.26 20.33 55.86 18.62 55.86H17.06V49.34C18.76 48.75 20.01 47.23 20.2 45.32C21.61 29.94 34.36 18.35 49.87 18.35C65.38 18.35 78.15 29.94 79.54 45.32C79.71 47.23 80.98 48.74 82.68 49.34V55.86H81.12C79.4 55.86 78 57.27 78 58.98H76.44C73.86 58.98 71.75 61.09 71.75 63.67V82.42C71.75 85 73.86 87.11 76.44 87.11H78C78 88.83 79.41 90.23 81.12 90.23H87.37C89.09 90.23 90.49 88.82 90.49 87.11V83.99H92.05C94.63 83.99 96.74 81.88 96.74 79.3V66.8C96.74 64.22 94.63 62.11 92.05 62.11V62.12ZM7.68 80.87C6.82 80.87 6.12 80.17 6.12 79.31V66.81C6.12 65.95 6.82 65.25 7.68 65.25H9.24V80.87H7.68ZM23.3 62.12C24.16 62.12 24.86 62.82 24.86 63.68V82.43C24.86 83.29 24.16 83.99 23.3 83.99H21.74V62.11H23.3V62.12ZM18.61 60.56V87.11H12.36V58.99H18.61V60.57V60.56ZM49.87 15.25C32.73 15.25 18.62 28.06 17.07 45.06C16.99 45.89 16.32 46.5 15.51 46.5C15.06 46.5 14.62 46.31 14.32 45.98C14.02 45.67 13.88 45.26 13.93 44.84C15.6 26.2 31.04 12.14 49.87 12.14C68.7 12.14 84.14 26.2 85.81 44.84C85.84 45.26 85.7 45.67 85.42 45.98C85.11 46.31 84.69 46.5 84.23 46.5C83.42 46.5 82.75 45.88 82.67 45.06C81.12 28.06 67.03 15.25 49.87 15.25ZM76.43 84C75.57 84 74.87 83.3 74.87 82.44V63.69C74.87 62.83 75.57 62.13 76.43 62.13H77.99V84.01H76.43V84ZM87.37 87.12H81.12V59H87.37V87.12ZM93.62 79.31C93.62 80.17 92.92 80.87 92.06 80.87H90.5V65.25H92.06C92.92 65.25 93.62 65.95 93.62 66.81V79.31Z" fill="url(#paint0_linear_992_67)"/>
<path d="M63.9301 30.8701H35.8101C32.3601 30.8701 29.5601 33.6701 29.5601 37.1201V55.8701C29.5601 59.3201 32.3601 62.1201 35.8101 62.1201H45.7801L48.4701 67.5101C48.7401 68.0401 49.2801 68.3701 49.8601 68.3701C50.4401 68.3701 51.0001 68.0401 51.2501 67.5101L53.9401 62.1201H63.9101C67.3601 62.1201 70.1601 59.3201 70.1601 55.8701V37.1201C70.1601 33.6701 67.3601 30.8701 63.9101 30.8701H63.9401H63.9301ZM67.0501 55.8701C67.0501 57.5901 65.6401 58.9901 63.9301 58.9901H52.9901C52.4001 58.9901 51.8701 59.3201 51.6001 59.8501L49.8701 63.3001L48.1401 59.8501C47.8701 59.3201 47.3301 58.9901 46.7501 58.9901H35.8101C34.0901 58.9901 32.6901 57.5801 32.6901 55.8701V37.1201C32.6901 35.4001 34.1001 34.0001 35.8101 34.0001H63.9301C65.6501 34.0001 67.0501 35.4101 67.0501 37.1201V55.8701Z" fill="url(#paint1_linear_992_67)"/>
<path d="M52.21 46.5002C52.21 49.6202 47.52 49.6202 47.52 46.5002C47.52 43.3802 52.21 43.3802 52.21 46.5002Z" fill="url(#paint2_linear_992_67)"/>
<path d="M61.58 46.5002C61.58 49.6202 56.89 49.6202 56.89 46.5002C56.89 43.3802 61.58 43.3802 61.58 46.5002Z" fill="url(#paint3_linear_992_67)"/>
<path d="M42.83 46.5002C42.83 49.6202 38.14 49.6202 38.14 46.5002C38.14 43.3802 42.83 43.3802 42.83 46.5002Z" fill="url(#paint4_linear_992_67)"/>
</g>
<defs>
<linearGradient id="paint0_linear_992_67" x1="2.99" y1="49.62" x2="96.74" y2="49.62" gradientUnits="userSpaceOnUse">
<stop stop-color="white"/>
<stop offset="1" stop-color="#FF0000"/>
</linearGradient>
<linearGradient id="paint1_linear_992_67" x1="29.5501" y1="49.6201" x2="70.1501" y2="49.6201" gradientUnits="userSpaceOnUse">
<stop stop-color="white"/>
<stop offset="1" stop-color="#FF0000"/>
</linearGradient>
<linearGradient id="paint2_linear_992_67" x1="47.52" y1="46.5002" x2="52.21" y2="46.5002" gradientUnits="userSpaceOnUse">
<stop stop-color="white"/>
<stop offset="1" stop-color="#FF0000"/>
</linearGradient>
<linearGradient id="paint3_linear_992_67" x1="56.9" y1="46.5002" x2="61.58" y2="46.5002" gradientUnits="userSpaceOnUse">
<stop stop-color="white"/>
<stop offset="1" stop-color="#FF0000"/>
</linearGradient>
<linearGradient id="paint4_linear_992_67" x1="38.15" y1="46.5002" x2="42.83" y2="46.5002" gradientUnits="userSpaceOnUse">
<stop stop-color="white"/>
<stop offset="1" stop-color="#FF0000"/>
</linearGradient>
</defs>
</svg>
